ffmpeg version N-102852-g758e2da289 Copyright (c) 2000-2021 the FFmpeg developers
  built with gcc 7 (Ubuntu 7.5.0-3ubuntu1~18.04)
  configuration: --prefix=/home/aleksandr/ffmpeg_debug_build --pkg-config-flags=--static --extra-cflags=-I/home/aleksandr/ffmpeg_debug_build/include --extra-ldflags=-L/home/aleksandr/ffmpeg_debug_build/lib --extra-libs='-lpthread -lm' --bindir=/home/aleksandr/bin_debug --enable-gpl --enable-libass --enable-libfdk-aac --enable-libfreetype --enable-libmp3lame --enable-libopus --enable-libtheora --enable-libvorbis --enable-libvpx --enable-libx264 --enable-libx265 --enable-nonfree
  libavutil      57.  0.100 / 57.  0.100
  libavcodec     59.  3.101 / 59.  3.101
  libavformat    59.  4.100 / 59.  4.100
  libavdevice    59.  0.100 / 59.  0.100
  libavfilter     8.  0.103 /  8.  0.103
  libswscale      6.  0.100 /  6.  0.100
  libswresample   4.  0.100 /  4.  0.100
  libpostproc    56.  0.100 / 56.  0.100
Input #0, matroska,webm, from '../.././Samples/8_AVC_8bits_3840x2160_25_000fps.mkv':
  Metadata:
    encoder         : Haali Matroska Writer b0
  Duration: 00:00:20.00, start: 0.000000, bitrate: 117459 kb/s
  Stream #0:0(eng): Video: h264 (Main), yuv420p(progressive), 3840x2160 [SAR 1:1 DAR 16:9], 25 fps, 25 tbr, 20k tbn (default)
Stream mapping:
  Stream #0:0 -> #0:0 (h264 (native) -> h264 (libx264))
Press [q] to stop, [?] for help
[libx264 @ 0x563ea3084b40] using SAR=1/1
[libx264 @ 0x563ea3084b40] using cpu capabilities: MMX2 SSE2Fast SSSE3 SSE4.2 AVX FMA3 BMI2 AVX2
[libx264 @ 0x563ea3084b40] profile High, level 5.1
[libx264 @ 0x563ea3084b40] 264 - core 152 r2854 e9a5903 - H.264/MPEG-4 AVC codec - Copyleft 2003-2017 - http://www.videolan.org/x264.html - options: cabac=1 ref=3 deblock=1:0:0 analyse=0x3:0x113 me=hex subme=7 psy=1 psy_rd=1.00:0.00 mixed_ref=1 me_range=16 chroma_me=1 trellis=1 8x8dct=1 cqm=0 deadzone=21,11 fast_pskip=1 chroma_qp_offset=-2 threads=6 lookahead_threads=1 sliced_threads=0 nr=0 decimate=1 interlaced=0 bluray_compat=0 constrained_intra=0 bframes=3 b_pyramid=2 b_adapt=1 b_bias=0 direct=1 weightb=1 open_gop=0 weightp=2 keyint=250 keyint_min=25 scenecut=40 intra_refresh=0 rc_lookahead=40 rc=crf mbtree=1 crf=23.0 qcomp=0.60 qpmin=0 qpmax=69 qpstep=4 ip_ratio=1.40 aq=1:1.00
Output #0, mov, to '/home/aleksandr/Debug-release_tests/Debug/Samples/8_AVC_8bits_3840x2160_25_000fps.mkv_tc/output_tc3.mov':
  Metadata:
    encoder         : Lavf59.4.100
  Stream #0:0(eng): Video: h264 (avc1 / 0x31637661), yuv420p(progressive), 3840x2160 [SAR 1:1 DAR 16:9], q=2-31, 25 fps, 12800 tbn (default)
    Metadata:
      encoder         : Lavc59.3.101 libx264
    Side data:
      cpb: bitrate max/min/avg: 0/0/0 buffer size: 0 vbv_delay: N/A
frame=    1 fps=0.0 q=0.0 size=       0kB time=00:00:00.00 bitrate=N/A speed=   0x    frame=   17 fps=0.0 q=0.0 size=       0kB time=00:00:00.00 bitrate=N/A speed=   0x    frame=   31 fps= 25 q=0.0 size=       0kB time=00:00:00.00 bitrate=N/A speed=   0x    frame=   47 fps= 11 q=0.0 size=       0kB time=00:00:00.00 bitrate=N/A speed=   0x    frame=   52 fps= 11 q=28.0 size=    1536kB time=-00:00:00.03 bitrate=N/A speed=N/A    frame=   53 fps=9.1 q=28.0 size=    1792kB time=00:00:00.00 bitrate=188209641.0kbits/s speed=1.34e-05x    frame=   54 fps=8.5 q=28.0 size=    2048kB time=00:00:00.04 bitrate=418621.3kbits/s speed=0.00631x    frame=   56 fps=6.9 q=28.0 size=    3072kB time=00:00:00.12 bitrate=209581.4kbits/s speed=0.0147x    frame=   57 fps=5.9 q=28.0 size=    3584kB time=00:00:00.16 bitrate=183413.2kbits/s speed=0.0165x    frame=   58 fps=5.2 q=28.0 size=    3840kB time=00:00:00.20 bitrate=157226.5kbits/s speed=0.0178x    frame=   59 fps=5.0 q=28.0 size=    4096kB time=00:00:00.24 bitrate=139765.9kbits/s speed=0.0204x    frame=   64 fps=4.8 q=28.0 size=    6144kB time=00:00:00.44 bitrate=114370.5kbits/s speed=0.0332x    frame=   65 fps=4.4 q=28.0 size=    6656kB time=00:00:00.48 bitrate=113577.9kbits/s speed=0.0324x    frame=   66 fps=4.0 q=28.0 size=    6912kB time=00:00:00.52 bitrate=108874.8kbits/s speed=0.0318x    frame=   68 fps=4.0 q=28.0 size=    7936kB time=00:00:00.60 bitrate=108339.2kbits/s speed=0.0353x    frame=   73 fps=3.8 q=28.0 size=    9984kB time=00:00:00.80 bitrate=102226.6kbits/s speed=0.0413x    frame=   74 fps=3.5 q=28.0 size=   10240kB time=00:00:00.84 bitrate=99855.5kbits/s speed=0.0402x    frame=   75 fps=3.3 q=28.0 size=   10496kB time=00:00:00.88 bitrate=97699.9kbits/s speed=0.0392x    frame=   76 fps=3.3 q=28.0 size=   11264kB time=00:00:00.92 bitrate=100290.4kbits/s speed=0.0399x    frame=   81 fps=3.2 q=28.0 size=   13312kB time=00:00:01.12 bitrate=97361.2kbits/s speed=0.0443x    frame=   82 fps=3.1 q=28.0 size=   13824kB time=00:00:01.16 bitrate=97619.7kbits/s speed=0.0432x    frame=   85 fps=3.0 q=28.0 size=   15104kB time=00:00:01.28 bitrate=96659.9kbits/s speed=0.045x    frame=   86 fps=3.0 q=28.0 size=   15360kB time=00:00:01.32 bitrate=95319.7kbits/s speed=0.0455x    frame=   90 fps=3.0 q=28.0 size=   17152kB time=00:00:01.48 bitrate=94933.8kbits/s speed=0.0492x    frame=   91 fps=2.9 q=28.0 size=   17408kB time=00:00:01.52 bitrate=93815.3kbits/s speed=0.0481x    frame=   92 fps=2.8 q=28.0 size=   17920kB time=00:00:01.56 bitrate=94098.5kbits/s speed=0.047x    frame=   95 fps=2.7 q=28.0 size=   18944kB time=00:00:01.68 bitrate=92370.4kbits/s speed=0.0482x    frame=   96 fps=2.6 q=28.0 size=   19712kB time=00:00:01.72 bitrate=93880.0kbits/s speed=0.0473x    frame=   97 fps=2.6 q=28.0 size=   19968kB time=00:00:01.76 bitrate=92938.0kbits/s speed=0.0474x    frame=  101 fps=2.7 q=28.0 size=   21760kB time=00:00:01.92 bitrate=92839.0kbits/s speed=0.0504x    frame=  102 fps=2.6 q=28.0 size=   22016kB time=00:00:01.96 bitrate=92014.4kbits/s speed=0.0495x    frame=  103 fps=2.5 q=28.0 size=   22272kB time=00:00:02.00 bitrate=91222.7kbits/s speed=0.0486x    frame=  104 fps=2.5 q=28.0 size=   23040kB time=00:00:02.04 bitrate=92518.0kbits/s speed=0.0489x    frame=  109 fps=2.5 q=28.0 size=   24832kB time=00:00:02.24 bitrate=90811.1kbits/s speed=0.0507x    frame=  110 fps=2.4 q=28.0 size=   25344kB time=00:00:02.28 bitrate=91057.6kbits/s speed=0.0499x    frame=  111 fps=2.3 q=28.0 size=   25600kB time=00:00:02.32 bitrate=90391.6kbits/s speed=0.0491x    frame=  112 fps=2.3 q=28.0 size=   26112kB time=00:00:02.36 bitrate=90636.7kbits/s speed=0.0493x    frame=  117 fps=2.3 q=28.0 size=   28416kB time=00:00:02.56 bitrate=90928.5kbits/s speed=0.051x    frame=  118 fps=2.3 q=28.0 size=   28672kB time=00:00:02.60 bitrate=90336.3kbits/s speed=0.0502x    frame=  119 fps=2.2 q=28.0 size=   28928kB time=00:00:02.64 bitrate=89761.9kbits/s speed=0.049x    frame=  124 fps=2.2 q=28.0 size=   31232kB time=00:00:02.84 bitrate=90086.6kbits/s speed=0.0515x    frame=  125 fps=2.2 q=28.0 size=   31488kB time=00:00:02.88 bitrate=89563.5kbits/s speed=0.0508x    frame=  128 fps=2.2 q=28.0 size=   32768kB time=00:00:03.00 bitrate=89476.3kbits/s speed=0.0515x    frame=  129 fps=2.2 q=28.0 size=   33280kB time=00:00:03.04 bitrate=89678.6kbits/s speed=0.0508x    frame=  130 fps=2.2 q=28.0 size=   33536kB time=00:00:03.08 bitrate=89194.9kbits/s speed=0.051x    frame=  134 fps=2.2 q=28.0 size=   35072kB time=00:00:03.24 bitrate=88673.8kbits/s speed=0.0525x    frame=  136 fps=2.1 q=28.0 size=   36096kB time=00:00:03.32 bitrate=89063.8kbits/s speed=0.0512x    frame=  137 fps=2.1 q=28.0 size=   36608kB time=00:00:03.36 bitrate=89251.8kbits/s speed=0.0514x    frame=  141 fps=2.1 q=28.0 size=   38400kB time=00:00:03.52 bitrate=89365.4kbits/s speed=0.0519x    frame=  145 fps=2.1 q=28.0 size=   40192kB time=00:00:03.68 bitrate=89469.1kbits/s speed=0.0527x    frame=  146 fps=2.0 q=28.0 size=   40448kB time=00:00:03.72 bitrate=89070.8kbits/s speed=0.0521x    frame=  147 fps=2.0 q=28.0 size=   40960kB time=00:00:03.76 bitrate=89238.7kbits/s speed=0.0523x    frame=  151 fps=2.1 q=28.0 size=   43520kB time=00:00:03.92 bitrate=90946.2kbits/s speed=0.054x    frame=  152 fps=2.1 q=28.0 size=   44032kB time=00:00:03.96 bitrate=91086.7kbits/s speed=0.0537x    frame=  154 fps=2.1 q=28.0 size=   45056kB time=00:00:04.04 bitrate=91359.4kbits/s speed=0.0542x    frame=  155 fps=2.1 q=28.0 size=   45568kB time=00:00:04.08 bitrate=91491.7kbits/s speed=0.0542x    frame=  156 fps=2.0 q=28.0 size=   45824kB time=00:00:04.12 bitrate=91112.5kbits/s speed=0.0536x    frame=  157 fps=2.0 q=28.0 size=   46592kB time=00:00:04.16 bitrate=91748.7kbits/s speed=0.0538x    frame=  161 fps=2.1 q=28.0 size=   48640kB time=00:00:04.32 bitrate=92234.3kbits/s speed=0.0553x    frame=  162 fps=2.0 q=28.0 size=   49152kB time=00:00:04.36 bitrate=92350.1kbits/s speed=0.0546x    frame=  163 fps=2.0 q=28.0 size=   49664kB time=00:00:04.40 bitrate=92463.8kbits/s speed=0.0541x    frame=  164 fps=2.0 q=28.0 size=   49920kB time=00:00:04.44 bitrate=92103.1kbits/s speed=0.0532x    frame=  169 fps=2.0 q=28.0 size=   52736kB time=00:00:04.64 bitrate=93104.8kbits/s speed=0.0544x    frame=  170 fps=2.0 q=28.0 size=   53504kB time=00:00:04.68 bitrate=93653.4kbits/s speed=0.0539x    frame=  173 fps=2.0 q=28.0 size=   55040kB time=00:00:04.80 bitrate=93933.5kbits/s speed=0.0543x    frame=  174 fps=1.9 q=28.0 size=   55552kB time=00:00:04.84 bitrate=94023.7kbits/s speed=0.0538x    frame=  176 fps=1.9 q=28.0 size=   56320kB time=00:00:04.92 bitrate=93773.7kbits/s speed=0.0534x    frame=  181 fps=1.9 q=28.0 size=   59392kB time=00:00:05.12 bitrate=95025.8kbits/s speed=0.0544x    frame=  182 fps=1.9 q=28.0 size=   59904kB time=00:00:05.16 bitrate=95102.0kbits/s speed=0.054x    frame=  183 fps=1.9 q=28.0 size=   60416kB time=00:00:05.20 bitrate=95177.1kbits/s speed=0.0541x    frame=  187 fps=1.9 q=28.0 size=   62720kB time=00:00:05.36 bitrate=95857.3kbits/s speed=0.0548x    frame=  189 fps=1.9 q=28.0 size=   64000kB time=00:00:05.44 bitrate=96375.1kbits/s speed=0.0539x    frame=  190 fps=1.9 q=28.0 size=   64512kB time=00:00:05.48 bitrate=96437.1kbits/s speed=0.054x    frame=  194 fps=1.9 q=28.0 size=   66816kB time=00:00:05.64 bitrate=97047.8kbits/s speed=0.0548x    frame=  195 fps=1.9 q=28.0 size=   67072kB time=00:00:05.68 bitrate=96733.6kbits/s speed=0.0546x    frame=  198 fps=1.9 q=28.0 size=   68864kB time=00:00:05.80 bitrate=97263.2kbits/s speed=0.0547x    frame=  199 fps=1.9 q=28.0 size=   69376kB time=00:00:05.84 bitrate=97315.2kbits/s speed=0.0548x    frame=  203 fps=1.9 q=28.0 size=   71424kB time=00:00:06.00 bitrate=97516.3kbits/s speed=0.0555x    frame=  206 fps=1.9 q=28.0 size=   73216kB time=00:00:06.12 bitrate=98003.0kbits/s speed=0.0557x    frame=  207 fps=1.9 q=28.0 size=   73728kB time=00:00:06.16 bitrate=98047.5kbits/s speed=0.0553x    frame=  208 fps=1.9 q=28.0 size=   74240kB time=00:00:06.20 bitrate=98091.4kbits/s speed=0.0554x    frame=  212 fps=1.9 q=28.0 size=   76288kB time=00:00:06.36 bitrate=98261.6kbits/s speed=0.0566x    frame=  213 fps=1.9 q=28.0 size=   77056kB time=00:00:06.40 bitrate=98630.5kbits/s speed=0.0561x    frame=  214 fps=1.8 q=28.0 size=   77824kB time=00:00:06.44 bitrate=98994.8kbits/s speed=0.0557x    frame=  216 fps=1.8 q=28.0 size=   78592kB time=00:00:06.52 bitrate=98745.1kbits/s speed=0.0553x    frame=  221 fps=1.9 q=28.0 size=   81664kB time=00:00:06.72 bitrate=99551.2kbits/s speed=0.0564x    frame=  222 fps=1.8 q=28.0 size=   82432kB time=00:00:06.76 bitrate=99892.8kbits/s speed=0.056x    frame=  223 fps=1.8 q=28.0 size=   82688kB time=00:00:06.80 bitrate=99613.6kbits/s speed=0.0556x    frame=  224 fps=1.8 q=28.0 size=   83200kB time=00:00:06.84 bitrate=99644.3kbits/s speed=0.0553x    frame=  225 fps=1.8 q=28.0 size=   83968kB time=00:00:06.88 bitrate=99979.4kbits/s speed=0.0554x    frame=  229 fps=1.8 q=28.0 size=   86272kB time=00:00:07.04 bitrate=100388.2kbits/s speed=0.0564x    frame=  230 fps=1.8 q=28.0 size=   86784kB time=00:00:07.08 bitrate=100413.4kbits/s speed=0.0557x    frame=  231 fps=1.8 q=28.0 size=   87296kB time=00:00:07.12 bitrate=100438.4kbits/s speed=0.0554x    frame=  232 fps=1.8 q=28.0 size=   87808kB time=00:00:07.16 bitrate=100463.1kbits/s speed=0.055x    frame=  233 fps=1.8 q=28.0 size=   88576kB time=00:00:07.20 bitrate=100778.8kbits/s speed=0.0551x    frame=  238 fps=1.8 q=28.0 size=   91392kB time=00:00:07.40 bitrate=101172.4kbits/s speed=0.0555x    frame=  239 fps=1.8 q=28.0 size=   91904kB time=00:00:07.44 bitrate=101192.2kbits/s speed=0.0552x    frame=  241 fps=1.8 q=28.0 size=   93184kB time=00:00:07.52 bitrate=101510.1kbits/s speed=0.0549x    frame=  246 fps=1.8 q=28.0 size=   96000kB time=00:00:07.72 bitrate=101868.4kbits/s speed=0.0554x    frame=  247 fps=1.8 q=28.0 size=   96512kB time=00:00:07.76 bitrate=101883.8kbits/s speed=0.0554x    frame=  249 fps=1.8 q=28.0 size=   97792kB time=00:00:07.84 bitrate=102181.7kbits/s speed=0.0556x    frame=  252 fps=1.8 q=28.0 size=   99328kB time=00:00:07.96 bitrate=102222.0kbits/s speed=0.0558x    frame=  253 fps=1.8 q=28.0 size=  100096kB time=00:00:08.00 bitrate=102497.3kbits/s speed=0.0558x    frame=  258 fps=1.8 q=28.0 size=  102912kB time=00:00:08.20 bitrate=102810.7kbits/s speed=0.0561x    frame=  259 fps=1.8 q=28.0 size=  103424kB time=00:00:08.24 bitrate=102820.6kbits/s speed=0.0558x    frame=  260 fps=1.7 q=28.0 size=  103936kB time=00:00:08.28 bitrate=102830.4kbits/s speed=0.0555x    frame=  261 fps=1.7 q=28.0 size=  104704kB time=00:00:08.32 bitrate=103092.2kbits/s speed=0.0555x    frame=  266 fps=1.7 q=28.0 size=  107776kB time=00:00:08.52 bitrate=103626.0kbits/s speed=0.0558x    frame=  267 fps=1.7 q=28.0 size=  108032kB time=00:00:08.56 bitrate=103386.7kbits/s speed=0.0555x    frame=  268 fps=1.7 q=28.0 size=  108544kB time=00:00:08.60 bitrate=103393.6kbits/s speed=0.0552x    frame=  269 fps=1.7 q=28.0 size=  109312kB time=00:00:08.64 bitrate=103643.1kbits/s speed=0.0553x    frame=  273 fps=1.7 q=28.0 size=  111616kB time=00:00:08.80 bitrate=103903.5kbits/s speed=0.0561x    frame=  274 fps=1.7 q=28.0 size=  112128kB time=00:00:08.84 bitrate=103907.8kbits/s speed=0.0557x    frame=  275 fps=1.7 q=28.0 size=  113408kB time=00:00:08.88 bitrate=104620.5kbits/s speed=0.0555x    frame=  276 fps=1.7 q=28.0 size=  114176kB time=00:00:08.92 bitrate=104856.7kbits/s speed=0.0555x    frame=  281 fps=1.7 q=28.0 size=  116992kB time=00:00:09.12 bitrate=105086.7kbits/s speed=0.0558x    frame=  283 fps=1.7 q=28.0 size=  118016kB time=00:00:09.20 bitrate=105084.7kbits/s speed=0.0561x    frame=  286 fps=1.7 q=28.0 size=  119808kB time=00:00:09.32 bitrate=105306.8kbits/s speed=0.0565x    frame=  287 fps=1.7 q=28.0 size=  120320kB time=00:00:09.36 bitrate=105304.9kbits/s speed=0.0561x    frame=  292 fps=1.7 q=28.0 size=  123392kB time=00:00:09.56 bitrate=105734.2kbits/s speed=0.057x    frame=  293 fps=1.7 q=28.0 size=  123904kB time=00:00:09.60 bitrate=105730.6kbits/s speed=0.0566x    frame=  294 fps=1.7 q=28.0 size=  124416kB time=00:00:09.64 bitrate=105727.0kbits/s speed=0.0563x    frame=  296 fps=1.7 q=28.0 size=  125696kB time=00:00:09.72 bitrate=105935.6kbits/s speed=0.0563x    frame=  297 fps=1.7 q=28.0 size=  126208kB time=00:00:09.76 bitrate=105931.1kbits/s speed=0.056x    frame=  298 fps=1.7 q=28.0 size=  126720kB time=00:00:09.80 bitrate=105926.8kbits/s speed=0.056x    frame=  302 fps=1.7 q=28.0 size=  129024kB time=00:00:09.96 bitrate=106120.1kbits/s speed=0.0566x    frame=  303 fps=1.7 q=28.0 size=  129536kB time=00:00:10.00 bitrate=106115.1kbits/s speed=0.0565x    frame=  305 fps=1.7 q=28.0 size=  130816kB time=00:00:10.08 bitrate=106313.2kbits/s speed=0.0565x    frame=  306 fps=1.7 q=28.0 size=  131328kB time=00:00:10.12 bitrate=106307.4kbits/s speed=0.0565x    frame=  310 fps=1.7 q=28.0 size=  133632kB time=00:00:10.28 bitrate=106488.8kbits/s speed=0.0568x    frame=  311 fps=1.7 q=28.0 size=  133888kB time=00:00:10.32 bitrate=106279.3kbits/s speed=0.0565x    frame=  313 fps=1.7 q=28.0 size=  135168kB time=00:00:10.40 bitrate=106470.0kbits/s speed=0.0565x    frame=  314 fps=1.7 q=28.0 size=  135680kB time=00:00:10.44 bitrate=106463.8kbits/s speed=0.0561x    frame=  319 fps=1.7 q=28.0 size=  138240kB time=00:00:10.64 bitrate=106433.7kbits/s speed=0.0567x    frame=  321 fps=1.7 q=28.0 size=  139520kB time=00:00:10.72 bitrate=106617.5kbits/s speed=0.0566x    frame=  322 fps=1.7 q=28.0 size=  140032kB time=00:00:10.76 bitrate=106611.0kbits/s speed=0.0562x    frame=  327 fps=1.7 q=28.0 size=  142592kB time=00:00:10.96 bitrate=106579.0kbits/s speed=0.0568x    frame=  328 fps=1.7 q=28.0 size=  143104kB time=00:00:11.00 bitrate=106572.7kbits/s speed=0.0568x    frame=  329 fps=1.7 q=28.0 size=  143872kB time=00:00:11.04 bitrate=106756.5kbits/s speed=0.0568x    frame=  330 fps=1.7 q=28.0 size=  144128kB time=00:00:11.08 bitrate=106560.3kbits/s speed=0.0564x    frame=  335 fps=1.7 q=28.0 size=  146688kB time=00:00:11.28 bitrate=106530.1kbits/s speed=0.0569x    frame=  337 fps=1.7 q=28.0 size=  147968kB time=00:00:11.36 bitrate=106703.0kbits/s speed=0.057x    frame=  340 fps=1.7 q=28.0 size=  149504kB time=00:00:11.48 bitrate=106683.7kbits/s speed=0.0574x    frame=  341 fps=1.7 q=28.0 size=  150016kB time=00:00:11.52 bitrate=106677.3kbits/s speed=0.0572x    frame=  342 fps=1.7 q=28.0 size=  150272kB time=00:00:11.56 bitrate=106489.6kbits/s speed=0.0569x    frame=  343 fps=1.7 q=28.0 size=  150784kB time=00:00:11.60 bitrate=106484.0kbits/s speed=0.0567x    frame=  344 fps=1.7 q=28.0 size=  151296kB time=00:00:11.64 bitrate=106478.4kbits/s speed=0.0565x    frame=  345 fps=1.7 q=28.0 size=  152064kB time=00:00:11.68 bitrate=106652.4kbits/s speed=0.0565x    frame=  349 fps=1.7 q=28.0 size=  154112kB time=00:00:11.84 bitrate=106628.2kbits/s speed=0.0569x    frame=  350 fps=1.7 q=28.0 size=  154368kB time=00:00:11.88 bitrate=106445.7kbits/s speed=0.0568x    frame=  353 fps=1.7 q=28.0 size=  155904kB time=00:00:12.00 bitrate=106429.8kbits/s speed=0.0569x    frame=  354 fps=1.7 q=28.0 size=  156416kB time=00:00:12.04 bitrate=106424.6kbits/s speed=0.0569x    frame=  358 fps=1.7 q=28.0 size=  158464kB time=00:00:12.20 bitrate=106404.0kbits/s speed=0.0573x    frame=  359 fps=1.7 q=28.0 size=  158720kB time=00:00:12.24 bitrate=106227.6kbits/s speed=0.0571x    frame=  361 fps=1.7 q=28.0 size=  160000kB time=00:00:12.32 bitrate=106389.0kbits/s speed=0.0567x    frame=  362 fps=1.7 q=28.0 size=  160512kB time=00:00:12.36 bitrate=106384.0kbits/s speed=0.0567x    frame=  366 fps=1.7 q=28.0 size=  162304kB time=00:00:12.52 bitrate=106197.0kbits/s speed=0.0571x    frame=  369 fps=1.7 q=28.0 size=  163840kB time=00:00:12.64 bitrate=106184.3kbits/s speed=0.0572x    frame=  371 fps=1.7 q=28.0 size=  164608kB time=00:00:12.72 bitrate=106011.1kbits/s speed=0.0572x    frame=  372 fps=1.7 q=28.0 size=  165376kB time=00:00:12.76 bitrate=106171.8kbits/s speed=0.0568x    frame=  377 fps=1.7 q=28.0 size=  167936kB time=00:00:12.96 bitrate=106151.5kbits/s speed=0.0571x    frame=  378 fps=1.7 q=28.0 size=  168192kB time=00:00:13.00 bitrate=105986.2kbits/s speed=0.0569x    frame=  379 fps=1.7 q=28.0 size=  168448kB time=00:00:13.04 bitrate=105821.9kbits/s speed=0.0569x    frame=  384 fps=1.7 q=28.0 size=  171008kB time=00:00:13.24 bitrate=105807.4kbits/s speed=0.0573x    frame=  385 fps=1.7 q=28.0 size=  171520kB time=00:00:13.28 bitrate=105804.5kbits/s speed=0.0571x    frame=  386 fps=1.6 q=28.0 size=  172032kB time=00:00:13.32 bitrate=105801.7kbits/s speed=0.0569x    frame=  387 fps=1.6 q=28.0 size=  172288kB time=00:00:13.36 bitrate=105641.9kbits/s speed=0.0566x    frame=  392 fps=1.7 q=28.0 size=  174848kB time=00:00:13.56 bitrate=105630.3kbits/s speed=0.0571x    frame=  393 fps=1.6 q=28.0 size=  175360kB time=00:00:13.60 bitrate=105628.0kbits/s speed=0.0569x    frame=  394 fps=1.6 q=28.0 size=  175616kB time=00:00:13.64 bitrate=105472.0kbits/s speed=0.0569x    frame=  398 fps=1.7 q=28.0 size=  177408kB time=00:00:13.80 bitrate=105312.9kbits/s speed=0.0573x    frame=  399 fps=1.6 q=28.0 size=  177920kB time=00:00:13.84 bitrate=105311.6kbits/s speed=0.0571x    frame=  401 fps=1.6 q=28.0 size=  178944kB time=00:00:13.92 bitrate=105309.0kbits/s speed=0.0571x    frame=  402 fps=1.6 q=28.0 size=  179456kB time=00:00:13.96 bitrate=105307.7kbits/s speed=0.0565x    frame=  403 fps=1.6 q=28.0 size=  179712kB time=00:00:14.00 bitrate=105156.6kbits/s speed=0.0563x    frame=  405 fps=1.6 q=28.0 size=  180736kB time=00:00:14.08 bitrate=105154.9kbits/s speed=0.0565x    frame=  409 fps=1.6 q=28.0 size=  182528kB time=00:00:14.24 bitrate=105004.3kbits/s speed=0.0568x    frame=  410 fps=1.6 q=28.0 size=  183040kB time=00:00:14.28 bitrate=105003.9kbits/s speed=0.0568x    frame=  413 fps=1.6 q=28.0 size=  184320kB time=00:00:14.40 bitrate=104857.1kbits/s speed=0.057x    frame=  414 fps=1.6 q=28.0 size=  184832kB time=00:00:14.44 bitrate=104857.1kbits/s speed=0.0566x    frame=  415 fps=1.6 q=28.0 size=  185088kB time=00:00:14.48 bitrate=104712.2kbits/s speed=0.0564x    frame=  417 fps=1.6 q=28.0 size=  186112kB time=00:00:14.56 bitrate=104713.0kbits/s speed=0.0566x    frame=  421 fps=1.6 q=28.0 size=  187904kB time=00:00:14.72 bitrate=104572.1kbits/s speed=0.0569x    frame=  422 fps=1.6 q=28.0 size=  188160kB time=00:00:14.76 bitrate=104430.8kbits/s speed=0.0567x    frame=  423 fps=1.6 q=28.0 size=  188416kB time=00:00:14.80 bitrate=104290.3kbits/s speed=0.0565x    frame=  424 fps=1.6 q=28.0 size=  189184kB time=00:00:14.84 bitrate=104433.1kbits/s speed=0.0563x    frame=  425 fps=1.6 q=28.0 size=  189696kB time=00:00:14.88 bitrate=104434.3kbits/s speed=0.0564x    frame=  429 fps=1.6 q=28.0 size=  191232kB time=00:00:15.04 bitrate=104159.9kbits/s speed=0.0567x    frame=  430 fps=1.6 q=28.0 size=  191744kB time=00:00:15.08 bitrate=104161.7kbits/s speed=0.0566x    frame=  433 fps=1.6 q=28.0 size=  193024kB time=00:00:15.20 bitrate=104029.3kbits/s speed=0.0568x    frame=  434 fps=1.6 q=28.0 size=  193280kB time=00:00:15.24 bitrate=103893.8kbits/s speed=0.0567x    frame=  439 fps=1.6 q=28.0 size=  195328kB time=00:00:15.44 bitrate=103634.7kbits/s speed=0.0571x    frame=  441 fps=1.6 q=28.0 size=  196608kB time=00:00:15.52 bitrate=103776.1kbits/s speed=0.0572x    frame=  443 fps=1.6 q=28.0 size=  197120kB time=00:00:15.60 bitrate=103512.8kbits/s speed=0.0571x    frame=  444 fps=1.6 q=28.0 size=  197632kB time=00:00:15.64 bitrate=103516.2kbits/s speed=0.0571x    frame=  449 fps=1.6 q=28.0 size=  199936kB time=00:00:15.84 bitrate=103400.8kbits/s speed=0.0573x    frame=  451 fps=1.6 q=28.0 size=  200448kB time=00:00:15.92 bitrate=103144.6kbits/s speed=0.0575x    frame=  453 fps=1.6 q=28.0 size=  201728kB time=00:00:16.00 bitrate=103284.3kbits/s speed=0.0575x    frame=  454 fps=1.6 q=28.0 size=  201984kB time=00:00:16.04 bitrate=103157.4kbits/s speed=0.0573x    frame=  455 fps=1.6 q=28.0 size=  202240kB time=00:00:16.08 bitrate=103031.2kbits/s speed=0.0573x    frame=  460 fps=1.6 q=28.0 size=  204544kB time=00:00:16.28 bitrate=102924.9kbits/s speed=0.0578x    frame=  461 fps=1.6 q=28.0 size=  205056kB time=00:00:16.32 bitrate=102929.6kbits/s speed=0.0576x    frame=  462 fps=1.6 q=28.0 size=  205312kB time=00:00:16.36 bitrate=102806.1kbits/s speed=0.0574x    frame=  463 fps=1.6 q=28.0 size=  205568kB time=00:00:16.40 bitrate=102683.3kbits/s speed=0.0575x    frame=  468 fps=1.6 q=28.0 size=  208128kB time=00:00:16.60 bitrate=102709.4kbits/s speed=0.0579x    frame=  469 fps=1.6 q=28.0 size=  208640kB time=00:00:16.64 bitrate=102714.6kbits/s speed=0.0577x    frame=  471 fps=1.6 q=28.0 size=  209152kB time=00:00:16.72 bitrate=102474.0kbits/s speed=0.0573x    frame=  472 fps=1.6 q=25.0 size=  209664kB time=00:00:16.76 bitrate=102479.7kbits/s speed=0.0574x    frame=  477 fps=1.6 q=28.0 size=  212480kB time=00:00:16.96 bitrate=102631.4kbits/s speed=0.0576x    frame=  478 fps=1.6 q=28.0 size=  212992kB time=00:00:17.00 bitrate=102636.6kbits/s speed=0.0575x    frame=  479 fps=1.6 q=28.0 size=  213504kB time=00:00:17.04 bitrate=102641.8kbits/s speed=0.0573x    frame=  480 fps=1.6 q=28.0 size=  213760kB time=00:00:17.08 bitrate=102524.3kbits/s speed=0.0573x    frame=  484 fps=1.6 q=28.0 size=  215552kB time=00:00:17.24 bitrate=102424.3kbits/s speed=0.0576x    frame=  485 fps=1.6 q=28.0 size=  215808kB time=00:00:17.28 bitrate=102308.5kbits/s speed=0.0575x    frame=  487 fps=1.6 q=28.0 size=  216832kB time=00:00:17.36 bitrate=102320.3kbits/s speed=0.0572x    frame=  488 fps=1.6 q=28.0 size=  217088kB time=00:00:17.40 bitrate=102205.6kbits/s speed=0.0572x    frame=  492 fps=1.6 q=28.0 size=  218880kB time=00:00:17.56 bitrate=102110.3kbits/s speed=0.0576x    frame=  493 fps=1.6 q=28.0 size=  219136kB time=00:00:17.60 bitrate=101997.4kbits/s speed=0.0576x    frame=  494 fps=1.6 q=28.0 size=  219904kB time=00:00:17.64 bitrate=102122.8kbits/s speed=0.0575x    frame=  498 fps=1.6 q=28.0 size=  221696kB time=00:00:17.80 bitrate=102029.5kbits/s speed=0.058x    frame=  499 fps=1.6 q=28.0 size=  222208kB time=00:00:17.84 bitrate=102035.9kbits/s speed=0.0577x    frame=  500 fps=1.5 q=-1.0 Lsize=  242961kB time=00:00:19.88 bitrate=100117.2kbits/s speed=0.0606x    
video:242951kB audio:0kB subtitle:0kB other streams:0kB global headers:0kB muxing overhead: 0.004028%
[libx264 @ 0x563ea3084b40] frame I:4     Avg QP:26.32  size:1054116
[libx264 @ 0x563ea3084b40] frame P:126   Avg QP:28.63  size:697791
[libx264 @ 0x563ea3084b40] frame B:370   Avg QP:29.56  size:423360
[libx264 @ 0x563ea3084b40] consecutive B-frames:  1.2%  0.4%  0.0% 98.4%
[libx264 @ 0x563ea3084b40] mb I  I16..4:  9.3% 51.1% 39.7%
[libx264 @ 0x563ea3084b40] mb P  I16..4:  2.9% 25.6% 14.6%  P16..4: 21.5% 26.3%  9.1%  0.0%  0.0%    skip: 0.0%
[libx264 @ 0x563ea3084b40] mb B  I16..4:  0.9%  2.5%  2.1%  B16..8: 45.0% 15.6%  6.3%  direct:23.3%  skip: 4.4%  L0:39.5% L1:38.4% BI:22.1%
[libx264 @ 0x563ea3084b40] 8x8 transform intra:55.3% inter:35.1%
[libx264 @ 0x563ea3084b40] coded y,uvDC,uvAC intra: 96.3% 95.1% 71.7% inter: 69.4% 60.0% 22.2%
[libx264 @ 0x563ea3084b40] i16 v,h,dc,p:  1% 42% 26% 31%
[libx264 @ 0x563ea3084b40] i8 v,h,dc,ddl,ddr,vr,hd,vl,hu:  3% 42%  8%  4%  6%  3% 16%  3% 16%
[libx264 @ 0x563ea3084b40] i4 v,h,dc,ddl,ddr,vr,hd,vl,hu:  4% 35% 11%  6%  7%  4% 15%  4% 15%
[libx264 @ 0x563ea3084b40] i8c dc,h,v,p: 42% 43%  5%  9%
[libx264 @ 0x563ea3084b40] Weighted P-Frames: Y:3.2% UV:1.6%
[libx264 @ 0x563ea3084b40] ref P L0: 46.0% 17.9% 23.7% 12.1%  0.3%
[libx264 @ 0x563ea3084b40] ref B L0: 93.9%  4.5%  1.7%
[libx264 @ 0x563ea3084b40] ref B L1: 99.0%  1.0%
[libx264 @ 0x563ea3084b40] kb/s:99512.59
	Command being timed: "/home/aleksandr/bin_debug/ffmpeg -i ../.././Samples/8_AVC_8bits_3840x2160_25_000fps.mkv -c:v libx264 -f mov /home/aleksandr/Debug-release_tests/Debug/Samples/8_AVC_8bits_3840x2160_25_000fps.mkv_tc/output_tc3.mov"
	User time (seconds): 847.07
	System time (seconds): 1.12
	Percent of CPU this job got: 258%
	Elapsed (wall clock) time (h:mm:ss or m:ss): 5:28.49
	Average shared text size (kbytes): 0
	Average unshared data size (kbytes): 0
	Average stack size (kbytes): 0
	Average total size (kbytes): 0
	Maximum resident set size (kbytes): 2136668
	Average resident set size (kbytes): 0
	Major (requiring I/O) page faults: 9
	Minor (reclaiming a frame) page faults: 81557
	Voluntary context switches: 25884
	Involuntary context switches: 60671
	Swaps: 0
	File system inputs: 573712
	File system outputs: 486144
	Socket messages sent: 0
	Socket messages received: 0
	Signals delivered: 0
	Page size (bytes): 4096
	Exit status: 0
